<?xml version="1.0" encoding="utf-8"?>
<svg viewBox="0 0 512 512" xmlns="http://www.w3.org/2000/svg">
  <circle style="fill: rgb(255, 255, 255); stroke: rgb(186, 186, 186); stroke-opacity: 0.15; stroke-width: 12px;" cx="256" cy="256" r="250"/>
  <path d="M 275.303 196.143 C 268.755 189.596 268.755 178.979 275.303 172.431 L 279.875 167.859 C 286.423 161.311 297.04 161.311 303.588 167.859 L 375.335 239.607 C 376.588 240.86 377.601 242.261 378.374 243.755 C 380.037 246.358 381 252.848 381 256.165 L 381 256.191 C 381 259.508 380.037 265.641 378.375 268.244 C 377.602 269.738 376.588 271.141 375.335 272.394 L 303.588 344.142 C 297.04 350.689 286.423 350.689 279.875 344.142 L 275.303 339.569 C 268.755 333.021 268.755 322.405 275.303 315.857 L 315.16 276 L 147.767 276 C 138.507 276 131 265.484 131 256.224 L 131 256.229 C 131 246.969 138.507 236 147.767 236 L 315.16 236 L 275.303 196.143 Z" style="fill: rgb(134, 134, 134);"/>
</svg>