<?xml version="1.0" encoding="utf-8"?>
<svg viewBox="0 0 512 512" xmlns="http://www.w3.org/2000/svg">
  <circle style="stroke-width: 12px; fill: rgb(255, 255, 255); stroke: rgb(196, 196, 196);" cx="256" cy="256" r="250"/>
  <path d="M 278.126 226.498 L 278.126 241.243 C 278.126 244.285 275.638 246.773 272.597 246.773 L 246.791 246.773 L 246.791 272.579 C 246.791 275.62 244.302 278.108 241.261 278.108 L 226.515 278.108 C 223.474 278.108 220.986 275.62 220.986 272.579 L 220.986 246.773 L 195.18 246.773 C 192.139 246.773 189.651 244.285 189.651 241.243 L 189.651 226.498 C 189.651 223.456 192.139 220.968 195.18 220.968 L 220.986 220.968 L 220.986 195.163 C 220.986 192.121 223.474 189.633 226.515 189.633 L 241.261 189.633 C 244.302 189.633 246.791 192.121 246.791 195.163 L 246.791 220.968 L 272.597 220.968 C 275.638 220.968 278.126 223.456 278.126 226.498 Z" style="fill: rgb(24, 26, 29);" transform="matrix(0.707107, 0.707107, -0.707107, 0.707107, 233.875772, -96.885064)"/>
  <path d="M 370.747 357.689 L 357.706 370.73 C 353.374 375.062 346.37 375.062 342.085 370.73 L 296.097 324.788 C 294.023 322.714 292.871 319.904 292.871 316.954 L 292.871 309.443 C 276.605 322.161 256.145 329.718 233.887 329.718 C 180.94 329.718 138.039 286.817 138.039 233.87 C 138.039 180.923 180.94 138.022 233.887 138.022 C 286.834 138.022 329.735 180.923 329.735 233.87 C 329.735 256.128 322.178 276.588 309.46 292.854 L 316.971 292.854 C 319.921 292.854 322.731 294.006 324.805 296.08 L 370.747 342.022 C 375.032 346.353 375.032 353.358 370.747 357.689 Z M 296.557 233.87 C 296.557 199.218 268.54 171.2 233.887 171.2 C 199.235 171.2 171.217 199.218 171.217 233.87 C 171.217 268.523 199.235 296.54 233.887 296.54 C 268.54 296.54 296.557 268.523 296.557 233.87 Z" style="fill: rgb(24, 26, 29);"/>
</svg>