<?xml version="1.0" encoding="utf-8"?>
<svg viewBox="0 0 512 512" xmlns="http://www.w3.org/2000/svg">
  <circle style="stroke-width: 12px; fill: rgb(255, 255, 255); stroke: rgb(196, 196, 196);" cx="256" cy="256" r="250"/>
  <path d="M 164.459 341.003 L 164.459 354.081 C 164.459 357.694 167.385 360.62 170.998 360.62 L 262.539 360.62 C 266.152 360.62 269.077 357.694 269.077 354.081 L 269.077 214.01 C 270.941 213.192 272.723 212.233 274.386 211.1 L 332.437 230.565 C 335.861 231.714 339.569 229.867 340.717 226.446 L 344.873 214.047 C 346.021 210.623 344.173 206.916 340.754 205.768 L 288.281 188.175 C 288.453 186.818 288.693 185.478 288.693 184.076 C 288.693 166.02 274.055 151.382 256 151.382 C 243.867 151.382 233.401 158.069 227.757 167.88 L 179.562 151.721 C 176.138 150.573 172.432 152.42 171.283 155.841 L 167.127 168.24 C 165.979 171.664 167.826 175.371 171.247 176.519 L 225.191 194.607 C 228.165 203.29 234.574 210.358 242.919 214.006 L 242.919 334.465 L 170.998 334.465 C 167.385 334.465 164.459 337.392 164.459 341.003 Z M 125.227 275.617 C 125.227 293.672 148.647 308.311 177.536 308.311 C 206.425 308.311 229.846 293.672 229.846 275.617 L 229.837 275.617 C 229.837 269.214 230.688 272.654 195.08 201.44 C 187.855 186.99 167.201 187.018 159.988 201.44 C 124.687 272.05 125.234 269.006 125.234 275.617 L 125.227 275.617 Z M 148.112 269.079 L 177.536 210.23 L 206.96 269.079 L 148.112 269.079 Z M 282.163 327.926 L 282.155 327.926 C 282.155 345.981 305.576 360.62 334.463 360.62 C 363.352 360.62 386.773 345.981 386.773 327.926 L 386.765 327.926 C 386.765 321.523 387.615 324.963 352.009 253.749 C 344.782 239.299 324.129 239.328 316.916 253.749 C 281.616 324.359 282.163 321.314 282.163 327.926 Z M 305.04 321.388 L 334.463 262.54 L 363.888 321.388 L 305.04 321.388 Z" style="fill: rgb(24, 26, 29);"/>
</svg>