<?xml version="1.0" encoding="utf-8"?>
<svg viewBox="0 0 512 512" xmlns="http://www.w3.org/2000/svg">
  <circle style="fill: rgb(255, 255, 255);" cx="256" cy="256" r="250"/>
  <path d="M 256.656 130.99 C 216.591 130.99 190.641 147.404 170.268 176.68 C 166.572 181.99 167.712 189.271 172.868 193.18 L 194.52 209.598 C 199.726 213.547 207.135 212.623 211.211 207.516 C 223.784 191.765 233.11 182.696 252.749 182.696 C 268.192 182.696 287.291 192.634 287.291 207.607 C 287.291 218.928 277.947 224.741 262.7 233.289 C 244.92 243.257 221.391 255.663 221.391 286.698 L 221.391 291.61 C 221.391 298.264 226.784 303.657 233.437 303.657 L 269.813 303.657 C 276.466 303.657 281.86 298.264 281.86 291.61 L 281.86 288.713 C 281.86 267.199 344.737 266.304 344.737 208.087 C 344.737 164.247 299.261 130.99 256.656 130.99 Z M 251.626 318.444 C 232.453 318.444 216.856 334.041 216.856 353.213 C 216.856 372.385 232.453 387.983 251.626 387.983 C 270.797 387.983 286.396 372.385 286.396 353.213 C 286.396 334.041 270.797 318.444 251.626 318.444 Z" style="fill: rgb(38, 38, 38);"/>
</svg>