<?xml version="1.0" encoding="utf-8"?>
<svg width="45" height="45" viewBox="0 0 45 45" fill="none" xmlns="http://www.w3.org/2000/svg">
  <circle cx="22.5" cy="22.5" r="21.5" stroke-width="2" style="stroke: rgb(255, 255, 255);"/>
  <path d="M 33.016 27.691 C 32.073 26.675 30.309 25.152 30.309 20.157 C 30.309 16.364 27.65 13.326 24.062 12.581 L 24.062 11.562 C 24.062 10.701 23.363 10 22.501 10 C 21.639 10 20.94 10.701 20.94 11.562 L 20.94 12.581 C 17.351 13.326 14.692 16.364 14.692 20.157 C 14.692 25.152 12.927 26.675 11.984 27.691 C 11.692 28.005 11.561 28.382 11.563 28.75 C 11.567 29.551 12.197 30.313 13.13 30.313 L 31.869 30.313 C 32.804 30.313 33.433 29.551 33.438 28.75 C 33.44 28.382 33.309 28.004 33.016 27.691 Z M 14.859 27.967 C 15.898 26.604 17.029 24.339 17.034 20.185 C 17.034 20.175 17.032 20.167 17.032 20.157 C 17.032 17.135 19.481 14.688 22.501 14.688 C 25.521 14.688 27.969 17.135 27.969 20.157 C 27.969 20.167 27.965 20.175 27.965 20.185 C 27.97 24.341 29.105 26.604 30.14 27.967 L 14.859 27.967 Z M 22.501 35 C 24.225 35 25.625 33.602 25.625 31.875 L 19.376 31.875 C 19.376 33.602 20.775 35 22.501 35 Z" style="fill: rgba(255, 255, 255, 0.85);"/>
</svg>