<?xml version="1.0" encoding="utf-8"?>
<svg viewBox="0 0 512 512" xmlns="http://www.w3.org/2000/svg">
  <path d="M 348.541 59.943 L 163.46 59.943 C 151.665 59.943 142.104 69.503 142.104 81.299 L 142.104 209.432 C 142.104 221.226 151.665 230.787 163.46 230.787 L 348.541 230.787 C 360.336 230.787 369.896 221.226 369.896 209.432 L 369.896 81.299 C 369.896 69.503 360.336 59.943 348.541 59.943 Z M 345.872 209.432 L 166.128 209.432 C 164.655 209.432 163.46 208.236 163.46 206.761 L 163.46 83.967 C 163.46 82.494 164.655 81.299 166.128 81.299 L 345.872 81.299 C 347.345 81.299 348.541 82.494 348.541 83.967 L 348.541 206.761 C 348.541 208.236 347.345 209.432 345.872 209.432 Z M 199.052 99.095 C 189.223 99.095 181.256 107.062 181.256 116.891 C 181.256 126.719 189.223 134.687 199.052 134.687 C 208.881 134.687 216.848 126.719 216.848 116.891 C 216.848 107.062 208.881 99.095 199.052 99.095 Z M 184.815 188.076 L 327.185 188.076 L 327.185 152.483 L 288.249 113.547 C 286.165 111.463 282.784 111.463 280.699 113.547 L 227.526 166.721 L 209.945 149.14 C 207.861 147.055 204.48 147.055 202.395 149.14 L 184.815 166.721 L 184.815 188.076 Z" style="fill: rgba(255, 255, 255, 0.8);"/>
  <path d="M 272.064 402.451 L 239.936 402.451 C 234.594 402.451 230.297 398.153 230.297 392.811 L 230.297 325.342 L 195.076 325.342 C 187.927 325.342 184.354 316.706 189.413 311.647 L 250.498 250.521 C 253.51 247.509 258.45 247.509 261.463 250.521 L 322.587 311.647 C 327.648 316.706 324.073 325.342 316.924 325.342 L 281.703 325.342 L 281.703 392.811 C 281.703 398.153 277.406 402.451 272.064 402.451 Z M 358.813 399.237 L 358.813 444.218 C 358.813 449.558 354.515 453.857 349.173 453.857 L 162.827 453.857 C 157.485 453.857 153.188 449.558 153.188 444.218 L 153.188 399.237 C 153.188 393.896 157.485 389.599 162.827 389.599 L 217.445 389.599 L 217.445 392.811 C 217.445 405.222 227.526 415.302 239.936 415.302 L 272.064 415.302 C 284.474 415.302 294.554 405.222 294.554 392.811 L 294.554 389.599 L 349.173 389.599 C 354.515 389.599 358.813 393.896 358.813 399.237 Z M 309.012 434.58 C 309.012 430.162 305.398 426.547 300.981 426.547 C 296.563 426.547 292.949 430.162 292.949 434.58 C 292.949 438.996 296.563 442.611 300.981 442.611 C 305.398 442.611 309.012 438.996 309.012 434.58 Z M 334.716 434.58 C 334.716 430.162 331.101 426.547 326.683 426.547 C 322.266 426.547 318.652 430.162 318.652 434.58 C 318.652 438.996 322.266 442.611 326.683 442.611 C 331.101 442.611 334.716 438.996 334.716 434.58 Z" style="fill: rgba(255, 255, 255, 0.8);"/>
</svg>