<?xml version="1.0" encoding="utf-8"?>
<svg viewBox="0 0 512 512" xmlns="http://www.w3.org/2000/svg">
  <circle style="fill: rgb(255, 255, 255);" cx="256" cy="256" r="250"/>
  <path d="M 235.962 242.081 L 135.182 242.081 C 131.848 242.081 129.145 239.379 129.145 236.046 L 129.145 135.265 C 129.145 131.931 131.848 129.229 135.182 129.229 L 159.329 129.229 C 162.663 129.229 165.366 131.931 165.366 135.265 L 165.366 174.561 C 188.391 148.989 221.839 132.987 259.023 133.257 C 327.895 133.757 383.001 189.409 382.854 258.283 C 382.709 327.062 326.908 382.771 258.096 382.771 C 225.856 382.771 196.474 370.54 174.331 350.467 C 171.767 348.142 171.649 344.152 174.098 341.704 L 191.184 324.617 C 193.435 322.366 197.052 322.244 199.434 324.353 C 215.048 338.167 235.584 346.55 258.096 346.55 C 307.028 346.55 346.635 306.952 346.635 258.012 C 346.635 209.081 307.036 169.474 258.096 169.474 C 228.669 169.474 202.62 183.799 186.525 205.862 L 235.962 205.862 C 239.295 205.862 241.999 208.564 241.999 211.898 L 241.999 236.046 C 241.999 239.379 239.295 242.081 235.962 242.081 Z" style="fill: rgb(38, 38, 38);"/>
</svg>