<svg width="45" height="45" viewBox="0 0 45 45" fill="none" xmlns="http://www.w3.org/2000/svg">
<path d="M32.1666 33.375V30.9583C32.1666 29.6765 31.6574 28.4471 30.7509 27.5407C29.8445 26.6342 28.6151 26.125 27.3333 26.125H17.6666C16.3847 26.125 15.1553 26.6342 14.2489 27.5407C13.3425 28.4471 12.8333 29.6765 12.8333 30.9583V33.375" stroke="white" stroke-width="2" stroke-linecap="round" stroke-linejoin="round"/>
<path d="M22.5001 21.2917C25.1695 21.2917 27.3334 19.1277 27.3334 16.4583C27.3334 13.789 25.1695 11.625 22.5001 11.625C19.8307 11.625 17.6667 13.789 17.6667 16.4583C17.6667 19.1277 19.8307 21.2917 22.5001 21.2917Z" stroke="white" stroke-width="2" stroke-linecap="round" stroke-linejoin="round"/>
<circle cx="22.5" cy="22.5" r="21.5" stroke="white" stroke-width="2"/>
</svg>
