<?xml version="1.0" encoding="utf-8"?>
<svg viewBox="0 0 512 512" xmlns="http://www.w3.org/2000/svg">
  <circle style="fill: rgb(255, 255, 255);" cx="256" cy="256" r="250"/>
  <path d="M 379.122 194.439 L 379.122 148.268 C 379.122 139.769 372.23 132.877 363.732 132.877 L 317.561 132.877 C 309.063 132.877 302.171 139.769 302.171 148.268 L 209.828 148.268 C 209.828 139.769 202.936 132.877 194.438 132.877 L 148.267 132.877 C 139.769 132.877 132.877 139.769 132.877 148.268 L 132.877 194.439 C 132.877 202.937 139.769 209.829 148.267 209.829 L 148.267 302.171 C 139.769 302.171 132.877 309.063 132.877 317.562 L 132.877 363.733 C 132.877 372.231 139.769 379.123 148.267 379.123 L 194.438 379.123 C 202.936 379.123 209.828 372.231 209.828 363.733 L 302.171 363.733 C 302.171 372.231 309.063 379.123 317.561 379.123 L 363.732 379.123 C 372.23 379.123 379.122 372.231 379.122 363.733 L 379.122 317.562 C 379.122 309.063 372.23 302.171 363.732 302.171 L 363.732 209.829 C 372.23 209.829 379.122 202.937 379.122 194.439 Z M 332.951 163.658 L 348.342 163.658 L 348.342 179.049 L 332.951 179.049 L 332.951 163.658 Z M 163.657 163.658 L 179.048 163.658 L 179.048 179.049 L 163.657 179.049 L 163.657 163.658 Z M 179.048 348.342 L 163.657 348.342 L 163.657 332.952 L 179.048 332.952 L 179.048 348.342 Z M 348.342 348.342 L 332.951 348.342 L 332.951 332.952 L 348.342 332.952 L 348.342 348.342 Z M 332.951 302.171 L 317.561 302.171 C 309.063 302.171 302.171 309.063 302.171 317.562 L 302.171 332.952 L 209.828 332.952 L 209.828 317.562 C 209.828 309.063 202.936 302.171 194.438 302.171 L 179.048 302.171 L 179.048 209.829 L 194.438 209.829 C 202.936 209.829 209.828 202.937 209.828 194.439 L 209.828 179.049 L 302.171 179.049 L 302.171 194.439 C 302.171 202.937 309.063 209.829 317.561 209.829 L 332.951 209.829 L 332.951 302.171 Z" style="fill: rgb(38, 38, 38);"/>
</svg>