<?xml version="1.0" encoding="utf-8"?>
<svg viewBox="0 0 500 500" xmlns="http://www.w3.org/2000/svg">
  <g>
    <circle style="fill: rgb(23, 24, 26);" cx="250" cy="250" r="250"/>
    <g transform="matrix(1.154628, 0, 0, 1.154628, 207.77063, -5.115062)" style="">
      <g transform="matrix(1, 0, 0, 1, 247.264999, 11.272003)">
        <path d="M -147.153 218.678 L -120.667 234.345 L -120.994 265.118 L -147.805 280.22 L -174.291 264.553 L -173.964 233.78 Z M -164.642 239.041 L -164.641 258.857 L -147.478 268.765 L -130.316 258.855 L -130.317 239.04 L -147.48 229.132 Z" style="fill: rgb(255, 255, 255);"/>
        <path d="M -147.456 269.609 L -147.674 246.226" style="stroke-width: 8px; stroke: rgb(255, 255, 255); fill: rgb(255, 255, 255);"/>
        <path d="M -156.3 254.091 L -156.518 230.709" style="stroke-width: 8px; stroke: rgb(255, 255, 255); fill: rgb(255, 255, 255);" transform="matrix(-0.5, 0.866025, -0.866025, -0.5, -24.688987, 499.054194)"/>
        <path d="M -138.441 254.192 L -138.659 230.809" style="stroke-width: 8px; stroke: rgb(255, 255, 255); fill: rgb(255, 255, 255);" transform="matrix(-0.5, -0.866025, 0.866025, -0.5, -417.836589, 243.762983)"/>
      </g>
      <path d="M 22.505 375.333 C 31.888 380.75 41.271 380.75 50.653 375.333 L 144.732 321.011 L 106.342 298.779 L 36.578 339.06 L -57.005 285.033 L 36.57 231.004 L 89.735 261.697 L 89.787 261.607 L 168.078 306.945 C 174.235 301.723 177.313 294.724 177.312 285.948 L 177.308 155.942 C 177.307 145.108 172.616 136.983 163.233 131.567 L 50.643 66.567 C 41.26 61.15 31.877 61.15 22.495 66.567 L -90.091 131.575 C -99.474 136.992 -104.165 145.118 -104.164 155.952 L -104.161 240.315 L -65.712 218.049 L -65.714 161.898 L 36.57 102.84 L 138.858 161.892 L 138.861 245.661 L 50.643 194.731 C 41.26 189.314 31.877 189.314 22.495 194.731 L -65.711 245.662 L -65.711 245.634 L -104.16 267.9 L -104.16 283.572 C -104.163 283.753 -104.164 283.934 -104.164 284.116 L -104.164 285.198 L -104.16 285.198 L -104.16 285.958 C -104.159 296.792 -99.468 304.917 -90.085 310.333 Z" style="fill: rgb(85, 176, 255);" transform="matrix(-1, 0, 0, -1, 73.14801, 441.900009)"/>
      <g transform="matrix(1, 0, 0, 1, 120.865005, 11.272003)">
        <path d="M -147.153 218.678 L -120.667 234.345 L -120.994 265.118 L -147.805 280.22 L -174.291 264.553 L -173.964 233.78 Z M -164.642 239.041 L -164.641 258.857 L -147.478 268.765 L -130.316 258.855 L -130.317 239.04 L -147.48 229.132 Z" style="fill: rgb(255, 255, 255);"/>
        <path d="M -147.456 269.609 L -147.674 246.226" style="stroke-width: 8px; stroke: rgb(255, 255, 255); fill: rgb(255, 255, 255);"/>
        <path d="M -156.3 254.091 L -156.518 230.709" style="stroke-width: 8px; stroke: rgb(255, 255, 255); fill: rgb(255, 255, 255);" transform="matrix(-0.5, 0.866025, -0.866025, -0.5, -24.688987, 499.054194)"/>
        <path d="M -138.441 254.192 L -138.659 230.809" style="stroke-width: 8px; stroke: rgb(255, 255, 255); fill: rgb(255, 255, 255);" transform="matrix(-0.5, -0.866025, 0.866025, -0.5, -417.836589, 243.762983)"/>
      </g>
      <g transform="matrix(1, 0, 0, 1, 184.053009, 46.028778)">
        <path d="M -147.153 218.678 L -120.667 234.345 L -120.994 265.118 L -147.805 280.22 L -174.291 264.553 L -173.964 233.78 Z M -164.642 239.041 L -164.641 258.857 L -147.478 268.765 L -130.316 258.855 L -130.317 239.04 L -147.48 229.132 Z" style="fill: rgb(255, 255, 255);"/>
        <path d="M -147.456 269.609 L -147.674 246.226" style="stroke-width: 8px; stroke: rgb(255, 255, 255); fill: rgb(255, 255, 255);"/>
        <path d="M -156.3 254.091 L -156.518 230.709" style="stroke-width: 8px; stroke: rgb(255, 255, 255); fill: rgb(255, 255, 255);" transform="matrix(-0.5, 0.866025, -0.866025, -0.5, -24.688987, 499.054194)"/>
        <path d="M -138.441 254.192 L -138.659 230.809" style="stroke-width: 8px; stroke: rgb(255, 255, 255); fill: rgb(255, 255, 255);" transform="matrix(-0.5, -0.866025, 0.866025, -0.5, -417.836589, 243.762983)"/>
      </g>
      <path d="M -65.71 280.008 L 36.578 339.06 L 138.862 280.002 L 138.86 223.851 L 177.309 201.585 L 177.312 285.948 C 177.313 296.782 172.622 304.908 163.239 310.325 L 50.653 375.333 C 41.271 380.75 31.888 380.75 22.505 375.333 L -90.085 310.333 C -99.468 304.917 -104.159 296.792 -104.16 285.958 L -104.163 173.889 L -65.713 196.259 L -65.71 280.008 Z" style="fill: rgb(0, 123, 232);"/>
    </g>
  </g>
</svg>