<?xml version="1.0" encoding="utf-8"?>
<svg viewBox="0 0 512 512" xmlns="http://www.w3.org/2000/svg">
  <circle style="fill: rgb(255, 255, 255);" cx="256" cy="256" r="250"/>
  <path d="M 270.899 136.731 C 266.851 122.056 245.69 121.373 241.101 136.731 C 217.253 217.172 166.259 239.031 166.259 295.726 C 166.259 345.92 206.397 386.533 256 386.533 C 305.603 386.533 345.741 345.92 345.741 295.726 C 345.741 238.745 294.859 217.539 270.899 136.731 Z M 256 353.9 C 224.514 353.9 198.891 328.278 198.891 296.792 C 198.891 292.284 202.543 288.634 207.05 288.634 C 211.558 288.634 215.208 292.284 215.208 296.792 C 215.208 319.283 233.509 337.583 256 337.583 C 260.508 337.583 264.158 341.234 264.158 345.741 C 264.158 350.249 260.508 353.9 256 353.9 Z" style="fill: rgb(38, 38, 38);"/>
</svg>