<?xml version="1.0" encoding="utf-8"?>
<svg viewBox="0 0 512 512" xmlns="http://www.w3.org/2000/svg">
  <circle style="fill: rgb(255, 255, 255);" cx="256" cy="256" r="250"/>
  <path d="M 236.469 131 L 275.531 131 C 282.026 131 287.25 136.226 287.25 142.719 L 287.25 224.75 L 330.073 224.75 C 338.764 224.75 343.109 235.249 336.958 241.4 L 262.689 315.718 C 259.028 319.379 253.021 319.379 249.359 315.718 L 174.994 241.4 C 168.841 235.249 173.188 224.75 181.879 224.75 L 224.75 224.75 L 224.75 142.719 C 224.75 136.226 229.976 131 236.469 131 Z M 381 314.594 L 381 369.281 C 381 375.776 375.776 381 369.281 381 L 142.719 381 C 136.226 381 131 375.776 131 369.281 L 131 314.594 C 131 308.1 136.226 302.876 142.719 302.876 L 214.35 302.876 L 238.276 326.801 C 248.09 336.616 263.91 336.616 273.726 326.801 L 297.65 302.876 L 369.281 302.876 C 375.776 302.876 381 308.1 381 314.594 Z M 320.453 357.563 C 320.453 352.191 316.059 347.798 310.688 347.798 C 305.316 347.798 300.921 352.191 300.921 357.563 C 300.921 362.934 305.316 367.329 310.688 367.329 C 316.059 367.329 320.453 362.934 320.453 357.563 Z M 351.703 357.563 C 351.703 352.191 347.309 347.798 341.938 347.798 C 336.566 347.798 332.171 352.191 332.171 357.563 C 332.171 362.934 336.566 367.329 341.938 367.329 C 347.309 367.329 351.703 362.934 351.703 357.563 Z" style="fill: rgb(38, 38, 38);"/>
</svg>