<?xml version="1.0" encoding="utf-8"?>
<svg viewBox="0 0 512 512" xmlns="http://www.w3.org/2000/svg">
  <circle style="fill: rgb(255, 255, 255);" cx="256" cy="256" r="250"/>
  <path d="M 372.077 201.311 L 349.955 223.433 C 347.699 225.689 344.052 225.689 341.797 223.433 L 288.53 170.167 C 286.275 167.912 286.275 164.265 288.53 162.009 L 310.652 139.887 C 319.626 130.913 334.214 130.913 343.236 139.887 L 372.077 168.728 C 381.098 177.702 381.098 192.29 372.077 201.311 Z M 269.527 181.012 L 143.512 307.028 L 133.338 365.333 C 131.947 373.203 138.809 380.017 146.679 378.674 L 204.984 368.452 L 330.999 242.436 C 333.255 240.181 333.255 236.534 330.999 234.278 L 277.733 181.012 C 275.429 178.757 271.782 178.757 269.527 181.012 Z M 192.699 296.231 C 190.059 293.592 190.059 289.368 192.699 286.729 L 266.6 212.828 C 269.239 210.189 273.462 210.189 276.102 212.828 C 278.741 215.468 278.741 219.69 276.102 222.33 L 202.2 296.231 C 199.561 298.87 195.338 298.87 192.699 296.231 Z M 175.375 336.588 L 198.409 336.588 L 198.409 354.008 L 167.458 359.43 L 152.533 344.506 L 157.956 313.554 L 175.375 313.554 L 175.375 336.588 Z" style="fill: rgb(38, 38, 38);"/>
</svg>