<?xml version="1.0" encoding="utf-8"?>
<svg viewBox="0 0 500 500" xmlns="http://www.w3.org/2000/svg">
  <g style="" transform="matrix(1.161586, 0, 0, 1.161586, -40.396503, -40.395935)">
    <path d="M 328.135 364.893 L 249.997 284.615 L 171.865 364.887 L 34.777 301.018 L 112.796 220.862 L 34.777 140.707 L 171.865 76.839 L 250.003 157.117 L 328.135 76.845 L 465.223 140.714 L 387.204 220.87 L 465.223 301.025 Z M 250.008 284.594 L 386.787 220.87 L 249.992 157.138 L 113.213 220.863 Z" style="fill: rgb(85, 176, 255);"/>
    <path d="M 118.056 348.836 L 173.737 373.626 L 250.004 294.838 L 328.354 375.805 L 381.946 351.944 L 381.946 365.958 L 253.469 423.16 L 253.458 423.134 L 118.025 362.835 L 118.025 348.906 Z" style="fill: rgb(0, 123, 232);"/>
  </g>
  <g transform="matrix(0.553998, 0, 0, 0.553998, -94.032753, -235.347076)" style="">
    <path d="M 562.569 879.918 L 562.177 837.711" style="stroke-width: 8px; stroke: rgb(255, 255, 255); fill: rgb(255, 255, 255);"/>
    <path d="M 546.605 851.908 L 546.212 809.701" style="stroke-width: 8px; stroke: rgb(255, 255, 255); fill: rgb(255, 255, 255);" transform="matrix(-0.5, 0.866025, -0.866025, -0.5, 1539.110532, 773.00329)"/>
    <path d="M 578.844 852.088 L 578.451 809.88" style="stroke-width: 8px; stroke: rgb(255, 255, 255); fill: rgb(255, 255, 255);" transform="matrix(-0.5, -0.866025, 0.866025, -0.5, 148.318119, 1747.599508)"/>
    <path d="M 679.617 879.918 L 679.224 837.711" style="stroke-width: 8px; stroke: rgb(255, 255, 255); fill: rgb(255, 255, 255);"/>
    <path d="M 663.652 851.908 L 663.26 809.701" style="stroke-width: 8px; stroke: rgb(255, 255, 255); fill: rgb(255, 255, 255);" transform="matrix(-0.5, 0.866025, -0.866025, -0.5, 1714.681822, 671.637177)"/>
    <path d="M 695.891 852.088 L 695.499 809.88" style="stroke-width: 8px; stroke: rgb(255, 255, 255); fill: rgb(255, 255, 255);" transform="matrix(-0.5, -0.866025, 0.866025, -0.5, 323.889409, 1848.965621)"/>
    <path d="M 621.093 792.45 L 620.7 750.242" style="stroke-width: 8px; stroke: rgb(255, 255, 255); fill: rgb(255, 255, 255);"/>
    <path d="M 605.129 764.44 L 604.736 722.232" style="stroke-width: 8px; stroke: rgb(255, 255, 255); fill: rgb(255, 255, 255);" transform="matrix(-0.5, 0.866025, -0.866025, -0.5, 1551.146671, 591.117211)"/>
    <path d="M 637.368 764.619 L 636.975 722.412" style="stroke-width: 8px; stroke: rgb(255, 255, 255); fill: rgb(255, 255, 255);" transform="matrix(-0.5, -0.866025, 0.866025, -0.5, 311.854049, 1667.079992)"/>
    <path d="M 553.257 776.134 L 553.259 803.313 L 542.461 809.548 L 542.459 769.997 L 584.446 745.753 L 584.445 731.63 L 620.998 710.523 L 657.553 731.627 L 657.554 752.732 L 657.554 745.753 L 699.537 769.99 L 699.539 809.548 L 716.077 819.095 L 716.079 861.305 L 679.526 882.411 L 642.97 861.308 L 642.968 819.099 L 679.522 797.992 L 688.74 803.314 L 688.739 776.128 L 657.554 758.125 L 657.555 773.836 L 621.002 794.942 L 584.447 773.84 L 584.446 752.735 L 584.446 758.125 Z M 562.474 797.992 L 599.03 819.095 L 599.032 861.305 L 582.168 871.042 L 621.005 893.462 L 659.833 871.043 L 670.715 877.325 L 621.005 906.027 L 571.286 877.326 L 580.241 872.155 L 562.478 882.411 L 525.923 861.308 L 525.921 819.099 Z M 533.841 823.671 L 533.843 856.734 L 562.477 873.265 L 591.111 856.731 L 591.109 823.669 L 562.475 807.138 Z M 650.889 823.671 L 650.891 856.734 L 679.525 873.265 L 708.159 856.731 L 708.156 823.669 L 679.523 807.138 Z M 592.365 736.203 L 592.367 769.265 L 621.001 785.796 L 649.635 769.263 L 649.633 736.2 L 620.999 719.669 Z" style="stroke-width: 4.41065px; stroke: rgb(255, 255, 255); fill: rgb(255, 255, 255);"/>
  </g>
</svg>