<?xml version="1.0" encoding="utf-8"?>
<svg viewBox="0 0 512 512" xmlns="http://www.w3.org/2000/svg">
  <circle style="fill: rgb(255, 255, 255);" cx="256" cy="256" r="250"/>
  <path d="M 201 256 C 227.598 256 249.124 234.474 249.124 207.876 C 249.124 181.278 227.598 159.75 201 159.75 C 174.402 159.75 152.874 181.278 152.874 207.876 C 152.874 234.474 174.402 256 201 256 Z M 233.999 269.75 L 230.433 269.75 C 221.496 274.048 211.57 276.625 201 276.625 C 190.429 276.625 180.546 274.048 171.567 269.75 L 168 269.75 C 140.672 269.75 118.5 291.922 118.5 319.251 L 118.5 331.625 C 118.5 343.011 127.738 352.25 139.124 352.25 L 262.875 352.25 C 274.261 352.25 283.5 343.011 283.5 331.625 L 283.5 319.251 C 283.5 291.922 261.328 269.75 233.999 269.75 Z M 324.749 256 C 347.523 256 366 237.524 366 214.751 C 366 191.977 347.523 173.5 324.749 173.5 C 301.976 173.5 283.5 191.977 283.5 214.751 C 283.5 237.524 301.976 256 324.749 256 Z M 345.374 269.75 L 343.743 269.75 C 337.77 271.813 331.453 273.188 324.749 273.188 C 318.047 273.188 311.73 271.813 305.757 269.75 L 304.125 269.75 C 295.359 269.75 287.282 272.285 280.191 276.367 C 290.675 287.668 297.25 302.664 297.25 319.251 L 297.25 335.75 C 297.25 336.695 297.035 337.598 296.992 338.5 L 372.875 338.5 C 384.261 338.5 393.5 329.262 393.5 317.875 C 393.5 291.278 371.972 269.75 345.374 269.75 Z" style="fill: rgb(38, 38, 38);"/>
</svg>