<?xml version="1.0" encoding="utf-8"?>
<svg width="25px" height="25px" viewBox="3.978 0 25 25" fill="none" xmlns="http://www.w3.org/2000/svg">
  <path d="M 26.993 17.691 C 26.05 16.675 24.286 15.152 24.286 10.157 C 24.286 6.364 21.627 3.326 18.039 2.581 L 18.039 1.562 C 18.039 0.701 17.34 0 16.478 0 C 15.616 0 14.917 0.701 14.917 1.562 L 14.917 2.581 C 11.328 3.326 8.669 6.364 8.669 10.157 C 8.669 15.152 6.904 16.675 5.961 17.691 C 5.669 18.005 5.538 18.382 5.54 18.75 C 5.544 19.551 6.174 20.313 7.107 20.313 L 25.846 20.313 C 26.781 20.313 27.41 19.551 27.415 18.75 C 27.417 18.382 27.286 18.004 26.993 17.691 Z M 8.836 17.967 C 9.875 16.604 11.006 14.339 11.011 10.185 C 11.011 10.175 11.009 10.167 11.009 10.157 C 11.009 7.135 13.458 4.688 16.478 4.688 C 19.498 4.688 21.946 7.135 21.946 10.157 C 21.946 10.167 21.942 10.175 21.942 10.185 C 21.947 14.341 23.082 16.604 24.117 17.967 L 8.836 17.967 Z M 16.478 25 C 18.202 25 19.602 23.602 19.602 21.875 L 13.353 21.875 C 13.353 23.602 14.752 25 16.478 25 Z" style="fill: rgba(255, 255, 255, 0.85);"/>
</svg>