<?xml version="1.0" encoding="utf-8"?>
<svg viewBox="0 0 512 512" xmlns="http://www.w3.org/2000/svg">
  <circle style="fill: rgb(255, 255, 255);" cx="256" cy="256" r="250"/>
  <path d="M 385.664 249.347 C 360.95 201.126 312.023 168.5 256 168.5 C 199.978 168.5 151.038 201.15 126.336 249.349 C 124.223 253.534 124.223 258.472 126.336 262.653 C 151.051 310.874 199.978 343.5 256 343.5 C 312.023 343.5 360.963 310.85 385.664 262.648 C 387.778 258.466 387.778 253.528 385.664 249.347 Z M 256 321.623 C 205.483 321.623 173.909 266.937 199.166 223.186 C 224.427 179.439 287.573 179.439 312.832 223.186 C 318.594 233.164 321.625 244.48 321.625 255.998 C 321.641 292.25 292.252 321.641 256 321.623 Z M 256 212.251 C 252.094 212.306 248.215 212.886 244.467 213.978 C 254.415 227.497 245.996 246.72 229.312 248.575 C 223.866 249.179 218.392 247.714 213.977 244.465 C 205.176 276.893 234.777 306.69 267.262 298.098 C 299.749 289.507 310.749 248.971 287.067 225.134 C 278.848 216.863 267.661 212.222 256 212.251 Z" style="fill: rgb(38, 38, 38);"/>
</svg>