<?xml version="1.0" encoding="utf-8"?>
<svg viewBox="0 0 512 512" xmlns="http://www.w3.org/2000/svg">
  <circle style="stroke-width: 12px; fill: rgb(255, 255, 255); stroke: rgb(196, 196, 196);" cx="256" cy="256" r="250"/>
  <path d="M 370.747 357.689 L 357.706 370.73 C 353.374 375.062 346.37 375.062 342.085 370.73 L 296.097 324.788 C 294.023 322.714 292.871 319.904 292.871 316.954 L 292.871 309.443 C 276.605 322.161 256.145 329.718 233.887 329.718 C 180.94 329.718 138.039 286.817 138.039 233.87 C 138.039 180.923 180.94 138.022 233.887 138.022 C 286.834 138.022 329.735 180.923 329.735 233.87 C 329.735 256.128 322.178 276.588 309.46 292.854 L 316.971 292.854 C 319.921 292.854 322.731 294.006 324.805 296.08 L 370.747 342.022 C 375.032 346.353 375.032 353.358 370.747 357.689 Z M 296.557 233.87 C 296.557 199.218 268.54 171.2 233.887 171.2 C 199.235 171.2 171.217 199.218 171.217 233.87 C 171.217 268.523 199.235 296.54 233.887 296.54 C 268.54 296.54 296.557 268.523 296.557 233.87 Z" style="fill: rgb(24, 26, 29);"/>
</svg>